<?xml version="1.0" encoding="utf-8"?>
<!-- Generator: Adobe Illustrator 21.0.0, SVG Export Plug-In . SVG Version: 6.00 Build 0)  -->
<svg version="1.1" id="Layer_1" xmlns="http://www.w3.org/2000/svg" xmlns:xlink="http://www.w3.org/1999/xlink" x="0px" y="0px"
	 viewBox="0 0 670 670" style="enable-background:new 0 0 670 670;" xml:space="preserve">
<style type="text/css">
	.st0{fill:#EDEEF2;}
	.st1{fill:#B6CAD5;}
	.st2{fill:#93ABBB;}
</style>
<g>
	<g>
		<g>
			<path id="SVGID_1_" class="st0" d="M335,0c185,0,335,150,335,335S520,670,335,670S0,520,0,335S150,0,335,0L335,0z"/>
		</g>
	</g>
	<g>
		<g>
			<path id="SVGID_3_" class="st1" d="M474.8,128.9l195.1-49.7l-50.2,193.4l-44.6-44.2l-35.5,37.4l0,0C548.9,290,554,316.4,554,344
				c0,121.5-98.5,220-220,220c-94.1,0-174.2-59.2-205.6-142.3l-0.3-0.6l-1.3-3.3l0.1-0.1c-8.2-23.1-12.9-47.8-12.9-73.7
				c0-121.5,98.5-220,220-220c64.2,0,122.8,28.7,163,72.6l22.4-23.5L474.8,128.9L474.8,128.9z"/>
		</g>
		<g>
			<path id="SVGID_4_" class="st0" d="M334,184c-88.4,0-160,71.6-160,160c0,8.9,0.8,17.5,2.2,26l64.4-62.3l55.8-55.3l55.8,55.3
				l20.4,19.8l83.2-87.4C426.3,206.3,382.2,184,334,184L334,184z"/>
		</g>
		<g>
			<defs>
				<path id="SVGID_2_" d="M474.8,128.9l195.1-49.7l-50.2,193.4l-44.6-44.2l-35.5,37.4l0,0C548.9,290,554,316.4,554,344
					c0,121.5-98.5,220-220,220c-94.1,0-174.2-59.2-205.6-142.3l-0.3-0.6l-1.3-3.3l0.1-0.1c-8.2-23.1-12.9-47.8-12.9-73.7
					c0-121.5,98.5-220,220-220c64.2,0,122.8,28.7,163,72.6l22.4-23.5L474.8,128.9L474.8,128.9z"/>
			</defs>
			<clipPath id="SVGID_5_">
				<use xlink:href="#SVGID_2_"  style="overflow:visible;"/>
			</clipPath>
		</g>
	</g>
	<g>
		<g>
			<polyline id="SVGID_7_" class="st2" points="168,488 297,362 372,437 540,265 544,279 374,495 297,410 181,501 			"/>
		</g>
	</g>
</g>
</svg>
