<?xml version="1.0" encoding="utf-8"?>
<!-- Generator: Adobe Illustrator 21.0.0, SVG Export Plug-In . SVG Version: 6.00 Build 0)  -->
<svg version="1.1" id="Layer_1" xmlns="http://www.w3.org/2000/svg" xmlns:xlink="http://www.w3.org/1999/xlink" x="0px" y="0px"
	 viewBox="0 0 500 500" style="enable-background:new 0 0 500 500;" xml:space="preserve">
<style type="text/css">
	.st0{fill:#57428D;}
	.st1{fill:#FFFFFF;}
	.st2{clip-path:url(#SVGID_10_);}
	.st3{clip-path:url(#SVGID_15_);}
	.st4{clip-path:url(#SVGID_16_);}
</style>
<g>
	<g>
		<g>
			<path id="SVGID_1_" class="st0" d="M250,0c138.1,0,250,111.9,250,250S388.1,500,250,500S0,388.1,0,250S111.9,0,250,0L250,0z"/>
		</g>
	</g>
	<g>
		<g>
			<path id="SVGID_3_" class="st1" d="M414,284c-4.3,6.5-31,51-31,51H222v18.5c-0.1,16.7,16,17.5,18.2,17.5h0.3v10.5H222h-45h-18.5
				V371h0.3c2.3,0,18.3-0.8,18.2-17.5v-154h45v25h62.5V195H154.1L124,243l32.3,54.5h15.2V335h-48l-53-91l53.5-94h53v-20
				c0-12.6-11-13.5-11-13.5V108h11h45h11v8.5c0,0-11,0.9-11,13.5v20h62.5v-20c0-12.6-11-13.5-11-13.5V108h11h45h11v8.5
				c0,0-11,0.9-11,13.5v20v45v102.5h22.2l12.8-21V268h60v9.5C424.5,277.5,418.3,277.5,414,284L414,284z"/>
		</g>
		<g>
			<polygon id="SVGID_4_" class="st1" points="284.5,262 222,262 222,297.5 284.5,297.5 			"/>
		</g>
		<g>
			<path id="SVGID_5_" class="st1" d="M364.5,210l-12.8-21H335v-37.5h48c0,0,26.7,44.5,31,51s10.5,6.5,10.5,6.5v9.5h-60V210
				L364.5,210z"/>
		</g>
		<g>
			<path id="SVGID_6_" class="st1" d="M284.5,353.5v-14h45v14c-0.1,16.7,16,17.5,18.2,17.5h0.3v10.5h-18.5h-45H266V371h0.3
				C268.5,371,284.6,370.2,284.5,353.5L284.5,353.5z"/>
		</g>
		<g>
			<defs>
				<path id="SVGID_2_" d="M414,284c-4.3,6.5-31,51-31,51H222v18.5c-0.1,16.7,16,17.5,18.2,17.5h0.3v10.5H222h-45h-18.5V371h0.3
					c2.3,0,18.3-0.8,18.2-17.5v-154h45v25h62.5V195H154.1L124,243l32.3,54.5h15.2V335h-48l-53-91l53.5-94h53v-20
					c0-12.6-11-13.5-11-13.5V108h11h45h11v8.5c0,0-11,0.9-11,13.5v20h62.5v-20c0-12.6-11-13.5-11-13.5V108h11h45h11v8.5
					c0,0-11,0.9-11,13.5v20v45v102.5h22.2l12.8-21V268h60v9.5C424.5,277.5,418.3,277.5,414,284L414,284z"/>
			</defs>
			<clipPath id="SVGID_7_">
				<use xlink:href="#SVGID_2_"  style="overflow:visible;"/>
			</clipPath>
		</g>
		<g>
			<defs>
				<path id="SVGID_8_" d="M414,284c-4.3,6.5-31,51-31,51H222v18.5c-0.1,16.7,16,17.5,18.2,17.5h0.3v10.5H222h-45h-18.5V371h0.3
					c2.3,0,18.3-0.8,18.2-17.5v-154h45v25h62.5V195H154.1L124,243l32.3,54.5h15.2V335h-48l-53-91l53.5-94h53v-20
					c0-12.6-11-13.5-11-13.5V108h11h45h11v8.5c0,0-11,0.9-11,13.5v20h62.5v-20c0-12.6-11-13.5-11-13.5V108h11h45h11v8.5
					c0,0-11,0.9-11,13.5v20v45v102.5h22.2l12.8-21V268h60v9.5C424.5,277.5,418.3,277.5,414,284L414,284z"/>
			</defs>
			<defs>
				<rect id="SVGID_9_" x="222" y="262" width="62.5" height="35.5"/>
			</defs>
			<clipPath id="SVGID_10_">
				<use xlink:href="#SVGID_8_"  style="overflow:visible;"/>
			</clipPath>
			<clipPath id="SVGID_11_" class="st2">
				<use xlink:href="#SVGID_9_"  style="overflow:visible;"/>
			</clipPath>
		</g>
		<g>
			<defs>
				<path id="SVGID_12_" d="M414,284c-4.3,6.5-31,51-31,51H222v18.5c-0.1,16.7,16,17.5,18.2,17.5h0.3v10.5H222h-45h-18.5V371h0.3
					c2.3,0,18.3-0.8,18.2-17.5v-154h45v25h62.5V195H154.1L124,243l32.3,54.5h15.2V335h-48l-53-91l53.5-94h53v-20
					c0-12.6-11-13.5-11-13.5V108h11h45h11v8.5c0,0-11,0.9-11,13.5v20h62.5v-20c0-12.6-11-13.5-11-13.5V108h11h45h11v8.5
					c0,0-11,0.9-11,13.5v20v45v102.5h22.2l12.8-21V268h60v9.5C424.5,277.5,418.3,277.5,414,284L414,284z"/>
			</defs>
			<defs>
				<rect id="SVGID_13_" x="222" y="262" width="62.5" height="35.5"/>
			</defs>
			<defs>
				<path id="SVGID_14_" d="M364.5,210l-12.8-21H335v-37.5h48c0,0,26.7,44.5,31,51s10.5,6.5,10.5,6.5v9.5h-60V210L364.5,210z"/>
			</defs>
			<use xlink:href="#SVGID_13_"  style="overflow:visible;fill:#57428D;"/>
			<clipPath id="SVGID_15_">
				<use xlink:href="#SVGID_12_"  style="overflow:visible;"/>
			</clipPath>
			<clipPath id="SVGID_16_" class="st3">
				<use xlink:href="#SVGID_13_"  style="overflow:visible;"/>
			</clipPath>
			<clipPath id="SVGID_17_" class="st4">
				<use xlink:href="#SVGID_14_"  style="overflow:visible;"/>
			</clipPath>
		</g>
	</g>
</g>
</svg>
