<?xml version="1.0" encoding="utf-8"?>
<!-- Generator: Adobe Illustrator 21.0.0, SVG Export Plug-In . SVG Version: 6.00 Build 0)  -->
<svg version="1.1" id="Layer_1" xmlns="http://www.w3.org/2000/svg" xmlns:xlink="http://www.w3.org/1999/xlink" x="0px" y="0px"
	 viewBox="0 0 50.4 50.2" style="enable-background:new 0 0 50.4 50.2;" xml:space="preserve">
<style type="text/css">
	.st0{fill:#1BA7AE;}
	.st1{fill:#FFFFFF;}
</style>
<g>
	<g>
		<g>
			<path id="SVGID_1_" class="st0" d="M25.2,0.1c13.8,0,25,11.2,25,25s-11.2,25-25,25s-25-11.2-25-25S11.4,0.1,25.2,0.1L25.2,0.1z"
				/>
		</g>
	</g>
	<g>
		<g>
			<path id="SVGID_3_" class="st1" d="M24.2,22c-0.2-0.8-0.5-1.5-0.8-2.2s-0.8-1.4-1.3-2s-1.1-1.2-1.7-1.6c-0.6-0.5-1.3-0.9-1.9-1.2
				c-0.7-0.4-1.4-0.7-2.1-0.9c-1.7-0.5-3.2-0.7-4.7-0.7c-0.6,0-1.2,0.1-1.8,0.1l1.4,3.1h0.4c1.1,0,2.3,0.2,3.3,0.6
				c0.5,0.2,1.1,0.4,1.5,0.7c0.5,0.3,0.9,0.6,1.3,1c0.8,0.7,1.5,1.6,1.9,2.5c0.2,0.5,0.4,0.9,0.5,1.4h-2.6l-1.5,3.4h4.2l-0.4,1.2
				c-0.5,0.9-1.1,1.8-1.9,2.5c-0.4,0.4-0.9,0.7-1.3,1c-0.5,0.3-1,0.5-1.5,0.7c-1.1,0.4-2.2,0.6-3.3,0.6h-0.5l-1.3,3
				c0.6,0.1,1.3,0.1,1.9,0.1c1.5,0,3-0.2,4.5-0.7c0.7-0.3,1.4-0.5,2.1-0.9s1.3-0.8,1.9-1.2c0.6-0.5,1.1-1,1.7-1.6
				c0.5-0.6,0.9-1.2,1.3-2c0.3-0.7,0.7-1.4,0.8-2.2l0.1-0.3v-0.3h2.8l0.1,0.3l0.1,0.3c0.2,0.8,0.5,1.5,0.8,2.2s0.8,1.4,1.3,2
				s1.1,1.2,1.7,1.6c0.6,0.5,1.3,0.9,1.9,1.2c0.7,0.4,1.4,0.7,2.1,0.9c1.5,0.5,2.9,0.7,4.5,0.7c0.6,0,1.2-0.1,1.8-0.1l-1.4-3.1
				c0.1,0.1-0.1,0.1-0.2,0.1l0,0c-1.1,0-2.3-0.2-3.3-0.6c-0.5-0.2-1.1-0.5-1.5-0.7c-0.5-0.3-0.7-0.4-1.4-0.9
				c-1.2-0.9-1.9-1.6-2.3-2.6c-0.2-0.4-0.3-0.8-0.5-1.2h2.5l1.5-3.4h-4.1c0.1-0.5,0.3-0.9,0.5-1.3c0.5-0.9,1.1-1.8,1.9-2.5
				c0.4-0.4,0.9-0.7,1.3-1c0.5-0.3,1-0.5,1.5-0.7c1.1-0.4,2.2-0.6,3.4-0.6h0.5l1.4-3.1c-0.6-0.1-1.3-0.1-1.9-0.1
				c-1.5,0-3,0.2-4.5,0.7c-0.7,0.3-1.4,0.5-2.1,0.9c-0.7,0.4-1.3,0.8-1.9,1.2c-0.7,0.5-1.3,1-1.7,1.6c-0.5,0.6-0.9,1.2-1.3,2
				c-0.3,0.7-0.7,1.4-0.8,2.2L27,22.4v0.3v0.1h-2.6"/>
		</g>
	</g>
</g>
</svg>
