<?xml version="1.0" encoding="utf-8"?>
<!-- Generator: Adobe Illustrator 21.0.0, SVG Export Plug-In . SVG Version: 6.00 Build 0)  -->
<svg version="1.1" id="Layer_1" xmlns="http://www.w3.org/2000/svg" xmlns:xlink="http://www.w3.org/1999/xlink" x="0px" y="0px"
	 viewBox="0 0 1000.2 1000.1" style="enable-background:new 0 0 1000.2 1000.1;" xml:space="preserve">
<style type="text/css">
	.st0{fill:#0670BA;}
	.st1{fill:#FFFFFF;}
	.st2{clip-path:url(#SVGID_17_);}
	.st3{clip-path:url(#SVGID_22_);}
	.st4{clip-path:url(#SVGID_23_);}
	.st5{clip-path:url(#SVGID_29_);}
	.st6{clip-path:url(#SVGID_30_);}
	.st7{clip-path:url(#SVGID_31_);}
	.st8{clip-path:url(#SVGID_38_);}
	.st9{clip-path:url(#SVGID_39_);}
	.st10{clip-path:url(#SVGID_40_);}
	.st11{clip-path:url(#SVGID_41_);}
	.st12{clip-path:url(#SVGID_49_);}
	.st13{clip-path:url(#SVGID_50_);}
	.st14{clip-path:url(#SVGID_51_);}
	.st15{clip-path:url(#SVGID_52_);}
	.st16{clip-path:url(#SVGID_53_);}
	.st17{clip-path:url(#SVGID_62_);}
	.st18{clip-path:url(#SVGID_63_);}
	.st19{clip-path:url(#SVGID_64_);}
	.st20{clip-path:url(#SVGID_65_);}
	.st21{clip-path:url(#SVGID_66_);}
	.st22{clip-path:url(#SVGID_67_);}
	.st23{clip-path:url(#SVGID_77_);}
	.st24{clip-path:url(#SVGID_78_);}
	.st25{clip-path:url(#SVGID_79_);}
	.st26{clip-path:url(#SVGID_80_);}
	.st27{clip-path:url(#SVGID_81_);}
	.st28{clip-path:url(#SVGID_82_);}
	.st29{clip-path:url(#SVGID_83_);}
	.st30{clip-path:url(#SVGID_94_);}
	.st31{clip-path:url(#SVGID_95_);}
	.st32{clip-path:url(#SVGID_96_);}
	.st33{clip-path:url(#SVGID_97_);}
	.st34{clip-path:url(#SVGID_98_);}
	.st35{clip-path:url(#SVGID_99_);}
	.st36{clip-path:url(#SVGID_100_);}
	.st37{clip-path:url(#SVGID_101_);}
	.st38{clip-path:url(#SVGID_113_);}
	.st39{clip-path:url(#SVGID_114_);}
	.st40{clip-path:url(#SVGID_115_);}
	.st41{clip-path:url(#SVGID_116_);}
	.st42{clip-path:url(#SVGID_117_);}
	.st43{clip-path:url(#SVGID_118_);}
	.st44{clip-path:url(#SVGID_119_);}
	.st45{clip-path:url(#SVGID_120_);}
	.st46{clip-path:url(#SVGID_121_);}
</style>
<g>
	<g>
		<g>
			<path id="SVGID_1_" class="st0" d="M500,0c276.1,0,500,223.9,500,500s-223.9,500-500,500S0,776.1,0,500S223.9,0,500,0L500,0z"/>
		</g>
	</g>
	<g>
		<g>
			<path id="SVGID_3_" class="st1" d="M789.5,493L518,770c-0.3,9.4-8,17-17.5,17c-9.7,0-17.5-7.8-17.5-17.5c0-0.5,0-0.9,0.1-1.4
				L213.4,492.9c-0.6,0.1-1.3,0.1-1.9,0.1c-9.7,0-17.5-7.8-17.5-17.5c0-9.1,6.9-16.5,15.8-17.4l107.9-176.2c-1-2.2-1.6-4.7-1.6-7.4
				c0-9.7,7.8-17.5,17.5-17.5c7.2,0,13.3,4.3,16,10.5l140.6,71.9c2.9-2.1,6.5-3.4,10.3-3.4c4.7,0,9,1.9,12.2,5l137.8-70.5
				c1.8-7.7,8.7-13.5,17-13.5c9.7,0,17.5,7.8,17.5,17.5c0,3.6-1.1,7-3,9.8L788.4,458h0.1c9.7,0,17.5,7.8,17.5,17.5
				C806,484.8,798.7,492.4,789.5,493L789.5,493z"/>
		</g>
		<g>
			<path id="SVGID_4_" class="st0" d="M464.3,726.1L316.1,462.7c-3.4-0.7-6.4-2.4-8.8-4.7l-79,22.6c-0.3,1.1-0.8,2.2-1.3,3.3
				L464.3,726.1L464.3,726.1z"/>
		</g>
		<g>
			<path id="SVGID_5_" class="st0" d="M224.8,464.1c0.2,0.2,0.3,0.4,0.5,0.6l76.9-22c1-6.2,5.3-11.4,11-13.6l11.9-129L224.8,464.1
				L224.8,464.1z"/>
		</g>
		<g>
			<path id="SVGID_6_" class="st0" d="M342.1,290.4l-13,140.5c2.6,1.8,4.8,4.2,6.1,7.1h146.3L342.1,290.4L342.1,290.4z"/>
		</g>
		<g>
			<path id="SVGID_7_" class="st0" d="M493,369.3c-5.8-2.8-9.9-8.7-10-15.6l-114.2-58.4L493,426.8V369.3L493,369.3z"/>
		</g>
		<g>
			<path id="SVGID_8_" class="st0" d="M493,461.3c-3.3-1.6-6-4.1-7.8-7.3H334.8c-0.8,1.5-1.8,2.8-3,4L493,744.5V461.3L493,461.3z"/>
		</g>
		<g>
			<path id="SVGID_9_" class="st0" d="M774.2,485.6c-0.4-0.5-0.7-1.1-1-1.7l-82.5-23.6c-1.5,0.9-3.2,1.7-4.9,2.1L535.8,729
				L774.2,485.6L774.2,485.6z"/>
		</g>
		<g>
			<path id="SVGID_10_" class="st0" d="M509,743.9l160.7-285.5c-1.4-1.3-2.5-2.7-3.5-4.4H515.8c-1.6,2.8-3.9,5.2-6.8,6.8V743.9
				L509,743.9z"/>
		</g>
		<g>
			<path id="SVGID_11_" class="st0" d="M517.7,356.3c-0.9,5.4-4.2,9.9-8.7,12.5v58.9l122.2-129.3L517.7,356.3L517.7,356.3z"/>
		</g>
		<g>
			<path id="SVGID_12_" class="st0" d="M657.9,293.4L521.2,438h144.5c1.2-2.4,2.9-4.5,4.9-6.2L657.9,293.4L657.9,293.4z"/>
		</g>
		<g>
			<path id="SVGID_13_" class="st0" d="M674.8,303.2l11.6,125.5c7.3,2.1,12.6,8.8,12.6,16.8c0,0.2,0,0.4,0,0.6l74.1,21.2
				c0.3-0.6,0.7-1.2,1.1-1.8L674.8,303.2L674.8,303.2z"/>
		</g>
		<g>
			<defs>
				<path id="SVGID_2_" d="M789.5,493L518,770c-0.3,9.4-8,17-17.5,17c-9.7,0-17.5-7.8-17.5-17.5c0-0.5,0-0.9,0.1-1.4L213.4,492.9
					c-0.6,0.1-1.3,0.1-1.9,0.1c-9.7,0-17.5-7.8-17.5-17.5c0-9.1,6.9-16.5,15.8-17.4l107.9-176.2c-1-2.2-1.6-4.7-1.6-7.4
					c0-9.7,7.8-17.5,17.5-17.5c7.2,0,13.3,4.3,16,10.5l140.6,71.9c2.9-2.1,6.5-3.4,10.3-3.4c4.7,0,9,1.9,12.2,5l137.8-70.5
					c1.8-7.7,8.7-13.5,17-13.5c9.7,0,17.5,7.8,17.5,17.5c0,3.6-1.1,7-3,9.8L788.4,458h0.1c9.7,0,17.5,7.8,17.5,17.5
					C806,484.8,798.7,492.4,789.5,493L789.5,493z"/>
			</defs>
			<clipPath id="SVGID_14_">
				<use xlink:href="#SVGID_2_"  style="overflow:visible;"/>
			</clipPath>
		</g>
		<g>
			<defs>
				<path id="SVGID_15_" d="M789.5,493L518,770c-0.3,9.4-8,17-17.5,17c-9.7,0-17.5-7.8-17.5-17.5c0-0.5,0-0.9,0.1-1.4L213.4,492.9
					c-0.6,0.1-1.3,0.1-1.9,0.1c-9.7,0-17.5-7.8-17.5-17.5c0-9.1,6.9-16.5,15.8-17.4l107.9-176.2c-1-2.2-1.6-4.7-1.6-7.4
					c0-9.7,7.8-17.5,17.5-17.5c7.2,0,13.3,4.3,16,10.5l140.6,71.9c2.9-2.1,6.5-3.4,10.3-3.4c4.7,0,9,1.9,12.2,5l137.8-70.5
					c1.8-7.7,8.7-13.5,17-13.5c9.7,0,17.5,7.8,17.5,17.5c0,3.6-1.1,7-3,9.8L788.4,458h0.1c9.7,0,17.5,7.8,17.5,17.5
					C806,484.8,798.7,492.4,789.5,493L789.5,493z"/>
			</defs>
			<defs>
				<path id="SVGID_16_" d="M464.3,726.1L316.1,462.7c-3.4-0.7-6.4-2.4-8.8-4.7l-79,22.6c-0.3,1.1-0.8,2.2-1.3,3.3L464.3,726.1
					L464.3,726.1z"/>
			</defs>
			<clipPath id="SVGID_17_">
				<use xlink:href="#SVGID_15_"  style="overflow:visible;"/>
			</clipPath>
			<clipPath id="SVGID_18_" class="st2">
				<use xlink:href="#SVGID_16_"  style="overflow:visible;"/>
			</clipPath>
		</g>
		<g>
			<defs>
				<path id="SVGID_19_" d="M789.5,493L518,770c-0.3,9.4-8,17-17.5,17c-9.7,0-17.5-7.8-17.5-17.5c0-0.5,0-0.9,0.1-1.4L213.4,492.9
					c-0.6,0.1-1.3,0.1-1.9,0.1c-9.7,0-17.5-7.8-17.5-17.5c0-9.1,6.9-16.5,15.8-17.4l107.9-176.2c-1-2.2-1.6-4.7-1.6-7.4
					c0-9.7,7.8-17.5,17.5-17.5c7.2,0,13.3,4.3,16,10.5l140.6,71.9c2.9-2.1,6.5-3.4,10.3-3.4c4.7,0,9,1.9,12.2,5l137.8-70.5
					c1.8-7.7,8.7-13.5,17-13.5c9.7,0,17.5,7.8,17.5,17.5c0,3.6-1.1,7-3,9.8L788.4,458h0.1c9.7,0,17.5,7.8,17.5,17.5
					C806,484.8,798.7,492.4,789.5,493L789.5,493z"/>
			</defs>
			<defs>
				<path id="SVGID_20_" d="M464.3,726.1L316.1,462.7c-3.4-0.7-6.4-2.4-8.8-4.7l-79,22.6c-0.3,1.1-0.8,2.2-1.3,3.3L464.3,726.1
					L464.3,726.1z"/>
			</defs>
			<defs>
				<path id="SVGID_21_" d="M224.8,464.1c0.2,0.2,0.3,0.4,0.5,0.6l76.9-22c1-6.2,5.3-11.4,11-13.6l11.9-129L224.8,464.1L224.8,464.1
					z"/>
			</defs>
			<clipPath id="SVGID_22_">
				<use xlink:href="#SVGID_19_"  style="overflow:visible;"/>
			</clipPath>
			<clipPath id="SVGID_23_" class="st3">
				<use xlink:href="#SVGID_20_"  style="overflow:visible;"/>
			</clipPath>
			<clipPath id="SVGID_24_" class="st4">
				<use xlink:href="#SVGID_21_"  style="overflow:visible;"/>
			</clipPath>
		</g>
		<g>
			<defs>
				<path id="SVGID_25_" d="M789.5,493L518,770c-0.3,9.4-8,17-17.5,17c-9.7,0-17.5-7.8-17.5-17.5c0-0.5,0-0.9,0.1-1.4L213.4,492.9
					c-0.6,0.1-1.3,0.1-1.9,0.1c-9.7,0-17.5-7.8-17.5-17.5c0-9.1,6.9-16.5,15.8-17.4l107.9-176.2c-1-2.2-1.6-4.7-1.6-7.4
					c0-9.7,7.8-17.5,17.5-17.5c7.2,0,13.3,4.3,16,10.5l140.6,71.9c2.9-2.1,6.5-3.4,10.3-3.4c4.7,0,9,1.9,12.2,5l137.8-70.5
					c1.8-7.7,8.7-13.5,17-13.5c9.7,0,17.5,7.8,17.5,17.5c0,3.6-1.1,7-3,9.8L788.4,458h0.1c9.7,0,17.5,7.8,17.5,17.5
					C806,484.8,798.7,492.4,789.5,493L789.5,493z"/>
			</defs>
			<defs>
				<path id="SVGID_26_" d="M464.3,726.1L316.1,462.7c-3.4-0.7-6.4-2.4-8.8-4.7l-79,22.6c-0.3,1.1-0.8,2.2-1.3,3.3L464.3,726.1
					L464.3,726.1z"/>
			</defs>
			<defs>
				<path id="SVGID_27_" d="M224.8,464.1c0.2,0.2,0.3,0.4,0.5,0.6l76.9-22c1-6.2,5.3-11.4,11-13.6l11.9-129L224.8,464.1L224.8,464.1
					z"/>
			</defs>
			<defs>
				<path id="SVGID_28_" d="M342.1,290.4l-13,140.5c2.6,1.8,4.8,4.2,6.1,7.1h146.3L342.1,290.4L342.1,290.4z"/>
			</defs>
			<clipPath id="SVGID_29_">
				<use xlink:href="#SVGID_25_"  style="overflow:visible;"/>
			</clipPath>
			<clipPath id="SVGID_30_" class="st5">
				<use xlink:href="#SVGID_26_"  style="overflow:visible;"/>
			</clipPath>
			<clipPath id="SVGID_31_" class="st6">
				<use xlink:href="#SVGID_27_"  style="overflow:visible;"/>
			</clipPath>
			<clipPath id="SVGID_32_" class="st7">
				<use xlink:href="#SVGID_28_"  style="overflow:visible;"/>
			</clipPath>
		</g>
		<g>
			<defs>
				<path id="SVGID_33_" d="M789.5,493L518,770c-0.3,9.4-8,17-17.5,17c-9.7,0-17.5-7.8-17.5-17.5c0-0.5,0-0.9,0.1-1.4L213.4,492.9
					c-0.6,0.1-1.3,0.1-1.9,0.1c-9.7,0-17.5-7.8-17.5-17.5c0-9.1,6.9-16.5,15.8-17.4l107.9-176.2c-1-2.2-1.6-4.7-1.6-7.4
					c0-9.7,7.8-17.5,17.5-17.5c7.2,0,13.3,4.3,16,10.5l140.6,71.9c2.9-2.1,6.5-3.4,10.3-3.4c4.7,0,9,1.9,12.2,5l137.8-70.5
					c1.8-7.7,8.7-13.5,17-13.5c9.7,0,17.5,7.8,17.5,17.5c0,3.6-1.1,7-3,9.8L788.4,458h0.1c9.7,0,17.5,7.8,17.5,17.5
					C806,484.8,798.7,492.4,789.5,493L789.5,493z"/>
			</defs>
			<defs>
				<path id="SVGID_34_" d="M464.3,726.1L316.1,462.7c-3.4-0.7-6.4-2.4-8.8-4.7l-79,22.6c-0.3,1.1-0.8,2.2-1.3,3.3L464.3,726.1
					L464.3,726.1z"/>
			</defs>
			<defs>
				<path id="SVGID_35_" d="M224.8,464.1c0.2,0.2,0.3,0.4,0.5,0.6l76.9-22c1-6.2,5.3-11.4,11-13.6l11.9-129L224.8,464.1L224.8,464.1
					z"/>
			</defs>
			<defs>
				<path id="SVGID_36_" d="M342.1,290.4l-13,140.5c2.6,1.8,4.8,4.2,6.1,7.1h146.3L342.1,290.4L342.1,290.4z"/>
			</defs>
			<defs>
				<path id="SVGID_37_" d="M493,369.3c-5.8-2.8-9.9-8.7-10-15.6l-114.2-58.4L493,426.8V369.3L493,369.3z"/>
			</defs>
			<clipPath id="SVGID_38_">
				<use xlink:href="#SVGID_33_"  style="overflow:visible;"/>
			</clipPath>
			<clipPath id="SVGID_39_" class="st8">
				<use xlink:href="#SVGID_34_"  style="overflow:visible;"/>
			</clipPath>
			<clipPath id="SVGID_40_" class="st9">
				<use xlink:href="#SVGID_35_"  style="overflow:visible;"/>
			</clipPath>
			<clipPath id="SVGID_41_" class="st10">
				<use xlink:href="#SVGID_36_"  style="overflow:visible;"/>
			</clipPath>
			<clipPath id="SVGID_42_" class="st11">
				<use xlink:href="#SVGID_37_"  style="overflow:visible;"/>
			</clipPath>
		</g>
		<g>
			<defs>
				<path id="SVGID_43_" d="M789.5,493L518,770c-0.3,9.4-8,17-17.5,17c-9.7,0-17.5-7.8-17.5-17.5c0-0.5,0-0.9,0.1-1.4L213.4,492.9
					c-0.6,0.1-1.3,0.1-1.9,0.1c-9.7,0-17.5-7.8-17.5-17.5c0-9.1,6.9-16.5,15.8-17.4l107.9-176.2c-1-2.2-1.6-4.7-1.6-7.4
					c0-9.7,7.8-17.5,17.5-17.5c7.2,0,13.3,4.3,16,10.5l140.6,71.9c2.9-2.1,6.5-3.4,10.3-3.4c4.7,0,9,1.9,12.2,5l137.8-70.5
					c1.8-7.7,8.7-13.5,17-13.5c9.7,0,17.5,7.8,17.5,17.5c0,3.6-1.1,7-3,9.8L788.4,458h0.1c9.7,0,17.5,7.8,17.5,17.5
					C806,484.8,798.7,492.4,789.5,493L789.5,493z"/>
			</defs>
			<defs>
				<path id="SVGID_44_" d="M464.3,726.1L316.1,462.7c-3.4-0.7-6.4-2.4-8.8-4.7l-79,22.6c-0.3,1.1-0.8,2.2-1.3,3.3L464.3,726.1
					L464.3,726.1z"/>
			</defs>
			<defs>
				<path id="SVGID_45_" d="M224.8,464.1c0.2,0.2,0.3,0.4,0.5,0.6l76.9-22c1-6.2,5.3-11.4,11-13.6l11.9-129L224.8,464.1L224.8,464.1
					z"/>
			</defs>
			<defs>
				<path id="SVGID_46_" d="M342.1,290.4l-13,140.5c2.6,1.8,4.8,4.2,6.1,7.1h146.3L342.1,290.4L342.1,290.4z"/>
			</defs>
			<defs>
				<path id="SVGID_47_" d="M493,369.3c-5.8-2.8-9.9-8.7-10-15.6l-114.2-58.4L493,426.8V369.3L493,369.3z"/>
			</defs>
			<defs>
				<path id="SVGID_48_" d="M493,461.3c-3.3-1.6-6-4.1-7.8-7.3H334.8c-0.8,1.5-1.8,2.8-3,4L493,744.5V461.3L493,461.3z"/>
			</defs>
			<clipPath id="SVGID_49_">
				<use xlink:href="#SVGID_43_"  style="overflow:visible;"/>
			</clipPath>
			<clipPath id="SVGID_50_" class="st12">
				<use xlink:href="#SVGID_44_"  style="overflow:visible;"/>
			</clipPath>
			<clipPath id="SVGID_51_" class="st13">
				<use xlink:href="#SVGID_45_"  style="overflow:visible;"/>
			</clipPath>
			<clipPath id="SVGID_52_" class="st14">
				<use xlink:href="#SVGID_46_"  style="overflow:visible;"/>
			</clipPath>
			<clipPath id="SVGID_53_" class="st15">
				<use xlink:href="#SVGID_47_"  style="overflow:visible;"/>
			</clipPath>
			<clipPath id="SVGID_54_" class="st16">
				<use xlink:href="#SVGID_48_"  style="overflow:visible;"/>
			</clipPath>
		</g>
		<g>
			<defs>
				<path id="SVGID_55_" d="M789.5,493L518,770c-0.3,9.4-8,17-17.5,17c-9.7,0-17.5-7.8-17.5-17.5c0-0.5,0-0.9,0.1-1.4L213.4,492.9
					c-0.6,0.1-1.3,0.1-1.9,0.1c-9.7,0-17.5-7.8-17.5-17.5c0-9.1,6.9-16.5,15.8-17.4l107.9-176.2c-1-2.2-1.6-4.7-1.6-7.4
					c0-9.7,7.8-17.5,17.5-17.5c7.2,0,13.3,4.3,16,10.5l140.6,71.9c2.9-2.1,6.5-3.4,10.3-3.4c4.7,0,9,1.9,12.2,5l137.8-70.5
					c1.8-7.7,8.7-13.5,17-13.5c9.7,0,17.5,7.8,17.5,17.5c0,3.6-1.1,7-3,9.8L788.4,458h0.1c9.7,0,17.5,7.8,17.5,17.5
					C806,484.8,798.7,492.4,789.5,493L789.5,493z"/>
			</defs>
			<defs>
				<path id="SVGID_56_" d="M464.3,726.1L316.1,462.7c-3.4-0.7-6.4-2.4-8.8-4.7l-79,22.6c-0.3,1.1-0.8,2.2-1.3,3.3L464.3,726.1
					L464.3,726.1z"/>
			</defs>
			<defs>
				<path id="SVGID_57_" d="M224.8,464.1c0.2,0.2,0.3,0.4,0.5,0.6l76.9-22c1-6.2,5.3-11.4,11-13.6l11.9-129L224.8,464.1L224.8,464.1
					z"/>
			</defs>
			<defs>
				<path id="SVGID_58_" d="M342.1,290.4l-13,140.5c2.6,1.8,4.8,4.2,6.1,7.1h146.3L342.1,290.4L342.1,290.4z"/>
			</defs>
			<defs>
				<path id="SVGID_59_" d="M493,369.3c-5.8-2.8-9.9-8.7-10-15.6l-114.2-58.4L493,426.8V369.3L493,369.3z"/>
			</defs>
			<defs>
				<path id="SVGID_60_" d="M493,461.3c-3.3-1.6-6-4.1-7.8-7.3H334.8c-0.8,1.5-1.8,2.8-3,4L493,744.5V461.3L493,461.3z"/>
			</defs>
			<defs>
				<path id="SVGID_61_" d="M774.2,485.6c-0.4-0.5-0.7-1.1-1-1.7l-82.5-23.6c-1.5,0.9-3.2,1.7-4.9,2.1L535.8,729L774.2,485.6
					L774.2,485.6z"/>
			</defs>
			<clipPath id="SVGID_62_">
				<use xlink:href="#SVGID_55_"  style="overflow:visible;"/>
			</clipPath>
			<clipPath id="SVGID_63_" class="st17">
				<use xlink:href="#SVGID_56_"  style="overflow:visible;"/>
			</clipPath>
			<clipPath id="SVGID_64_" class="st18">
				<use xlink:href="#SVGID_57_"  style="overflow:visible;"/>
			</clipPath>
			<clipPath id="SVGID_65_" class="st19">
				<use xlink:href="#SVGID_58_"  style="overflow:visible;"/>
			</clipPath>
			<clipPath id="SVGID_66_" class="st20">
				<use xlink:href="#SVGID_59_"  style="overflow:visible;"/>
			</clipPath>
			<clipPath id="SVGID_67_" class="st21">
				<use xlink:href="#SVGID_60_"  style="overflow:visible;"/>
			</clipPath>
			<clipPath id="SVGID_68_" class="st22">
				<use xlink:href="#SVGID_61_"  style="overflow:visible;"/>
			</clipPath>
		</g>
		<g>
			<defs>
				<path id="SVGID_69_" d="M789.5,493L518,770c-0.3,9.4-8,17-17.5,17c-9.7,0-17.5-7.8-17.5-17.5c0-0.5,0-0.9,0.1-1.4L213.4,492.9
					c-0.6,0.1-1.3,0.1-1.9,0.1c-9.7,0-17.5-7.8-17.5-17.5c0-9.1,6.9-16.5,15.8-17.4l107.9-176.2c-1-2.2-1.6-4.7-1.6-7.4
					c0-9.7,7.8-17.5,17.5-17.5c7.2,0,13.3,4.3,16,10.5l140.6,71.9c2.9-2.1,6.5-3.4,10.3-3.4c4.7,0,9,1.9,12.2,5l137.8-70.5
					c1.8-7.7,8.7-13.5,17-13.5c9.7,0,17.5,7.8,17.5,17.5c0,3.6-1.1,7-3,9.8L788.4,458h0.1c9.7,0,17.5,7.8,17.5,17.5
					C806,484.8,798.7,492.4,789.5,493L789.5,493z"/>
			</defs>
			<defs>
				<path id="SVGID_70_" d="M464.3,726.1L316.1,462.7c-3.4-0.7-6.4-2.4-8.8-4.7l-79,22.6c-0.3,1.1-0.8,2.2-1.3,3.3L464.3,726.1
					L464.3,726.1z"/>
			</defs>
			<defs>
				<path id="SVGID_71_" d="M224.8,464.1c0.2,0.2,0.3,0.4,0.5,0.6l76.9-22c1-6.2,5.3-11.4,11-13.6l11.9-129L224.8,464.1L224.8,464.1
					z"/>
			</defs>
			<defs>
				<path id="SVGID_72_" d="M342.1,290.4l-13,140.5c2.6,1.8,4.8,4.2,6.1,7.1h146.3L342.1,290.4L342.1,290.4z"/>
			</defs>
			<defs>
				<path id="SVGID_73_" d="M493,369.3c-5.8-2.8-9.9-8.7-10-15.6l-114.2-58.4L493,426.8V369.3L493,369.3z"/>
			</defs>
			<defs>
				<path id="SVGID_74_" d="M493,461.3c-3.3-1.6-6-4.1-7.8-7.3H334.8c-0.8,1.5-1.8,2.8-3,4L493,744.5V461.3L493,461.3z"/>
			</defs>
			<defs>
				<path id="SVGID_75_" d="M774.2,485.6c-0.4-0.5-0.7-1.1-1-1.7l-82.5-23.6c-1.5,0.9-3.2,1.7-4.9,2.1L535.8,729L774.2,485.6
					L774.2,485.6z"/>
			</defs>
			<defs>
				<path id="SVGID_76_" d="M509,743.9l160.7-285.5c-1.4-1.3-2.5-2.7-3.5-4.4H515.8c-1.6,2.8-3.9,5.2-6.8,6.8V743.9L509,743.9z"/>
			</defs>
			<clipPath id="SVGID_77_">
				<use xlink:href="#SVGID_69_"  style="overflow:visible;"/>
			</clipPath>
			<clipPath id="SVGID_78_" class="st23">
				<use xlink:href="#SVGID_70_"  style="overflow:visible;"/>
			</clipPath>
			<clipPath id="SVGID_79_" class="st24">
				<use xlink:href="#SVGID_71_"  style="overflow:visible;"/>
			</clipPath>
			<clipPath id="SVGID_80_" class="st25">
				<use xlink:href="#SVGID_72_"  style="overflow:visible;"/>
			</clipPath>
			<clipPath id="SVGID_81_" class="st26">
				<use xlink:href="#SVGID_73_"  style="overflow:visible;"/>
			</clipPath>
			<clipPath id="SVGID_82_" class="st27">
				<use xlink:href="#SVGID_74_"  style="overflow:visible;"/>
			</clipPath>
			<clipPath id="SVGID_83_" class="st28">
				<use xlink:href="#SVGID_75_"  style="overflow:visible;"/>
			</clipPath>
			<clipPath id="SVGID_84_" class="st29">
				<use xlink:href="#SVGID_76_"  style="overflow:visible;"/>
			</clipPath>
		</g>
		<g>
			<defs>
				<path id="SVGID_85_" d="M789.5,493L518,770c-0.3,9.4-8,17-17.5,17c-9.7,0-17.5-7.8-17.5-17.5c0-0.5,0-0.9,0.1-1.4L213.4,492.9
					c-0.6,0.1-1.3,0.1-1.9,0.1c-9.7,0-17.5-7.8-17.5-17.5c0-9.1,6.9-16.5,15.8-17.4l107.9-176.2c-1-2.2-1.6-4.7-1.6-7.4
					c0-9.7,7.8-17.5,17.5-17.5c7.2,0,13.3,4.3,16,10.5l140.6,71.9c2.9-2.1,6.5-3.4,10.3-3.4c4.7,0,9,1.9,12.2,5l137.8-70.5
					c1.8-7.7,8.7-13.5,17-13.5c9.7,0,17.5,7.8,17.5,17.5c0,3.6-1.1,7-3,9.8L788.4,458h0.1c9.7,0,17.5,7.8,17.5,17.5
					C806,484.8,798.7,492.4,789.5,493L789.5,493z"/>
			</defs>
			<defs>
				<path id="SVGID_86_" d="M464.3,726.1L316.1,462.7c-3.4-0.7-6.4-2.4-8.8-4.7l-79,22.6c-0.3,1.1-0.8,2.2-1.3,3.3L464.3,726.1
					L464.3,726.1z"/>
			</defs>
			<defs>
				<path id="SVGID_87_" d="M224.8,464.1c0.2,0.2,0.3,0.4,0.5,0.6l76.9-22c1-6.2,5.3-11.4,11-13.6l11.9-129L224.8,464.1L224.8,464.1
					z"/>
			</defs>
			<defs>
				<path id="SVGID_88_" d="M342.1,290.4l-13,140.5c2.6,1.8,4.8,4.2,6.1,7.1h146.3L342.1,290.4L342.1,290.4z"/>
			</defs>
			<defs>
				<path id="SVGID_89_" d="M493,369.3c-5.8-2.8-9.9-8.7-10-15.6l-114.2-58.4L493,426.8V369.3L493,369.3z"/>
			</defs>
			<defs>
				<path id="SVGID_90_" d="M493,461.3c-3.3-1.6-6-4.1-7.8-7.3H334.8c-0.8,1.5-1.8,2.8-3,4L493,744.5V461.3L493,461.3z"/>
			</defs>
			<defs>
				<path id="SVGID_91_" d="M774.2,485.6c-0.4-0.5-0.7-1.1-1-1.7l-82.5-23.6c-1.5,0.9-3.2,1.7-4.9,2.1L535.8,729L774.2,485.6
					L774.2,485.6z"/>
			</defs>
			<defs>
				<path id="SVGID_92_" d="M509,743.9l160.7-285.5c-1.4-1.3-2.5-2.7-3.5-4.4H515.8c-1.6,2.8-3.9,5.2-6.8,6.8V743.9L509,743.9z"/>
			</defs>
			<defs>
				<path id="SVGID_93_" d="M517.7,356.3c-0.9,5.4-4.2,9.9-8.7,12.5v58.9l122.2-129.3L517.7,356.3L517.7,356.3z"/>
			</defs>
			<clipPath id="SVGID_94_">
				<use xlink:href="#SVGID_85_"  style="overflow:visible;"/>
			</clipPath>
			<clipPath id="SVGID_95_" class="st30">
				<use xlink:href="#SVGID_86_"  style="overflow:visible;"/>
			</clipPath>
			<clipPath id="SVGID_96_" class="st31">
				<use xlink:href="#SVGID_87_"  style="overflow:visible;"/>
			</clipPath>
			<clipPath id="SVGID_97_" class="st32">
				<use xlink:href="#SVGID_88_"  style="overflow:visible;"/>
			</clipPath>
			<clipPath id="SVGID_98_" class="st33">
				<use xlink:href="#SVGID_89_"  style="overflow:visible;"/>
			</clipPath>
			<clipPath id="SVGID_99_" class="st34">
				<use xlink:href="#SVGID_90_"  style="overflow:visible;"/>
			</clipPath>
			<clipPath id="SVGID_100_" class="st35">
				<use xlink:href="#SVGID_91_"  style="overflow:visible;"/>
			</clipPath>
			<clipPath id="SVGID_101_" class="st36">
				<use xlink:href="#SVGID_92_"  style="overflow:visible;"/>
			</clipPath>
			<clipPath id="SVGID_102_" class="st37">
				<use xlink:href="#SVGID_93_"  style="overflow:visible;"/>
			</clipPath>
		</g>
		<g>
			<defs>
				<path id="SVGID_103_" d="M789.5,493L518,770c-0.3,9.4-8,17-17.5,17c-9.7,0-17.5-7.8-17.5-17.5c0-0.5,0-0.9,0.1-1.4L213.4,492.9
					c-0.6,0.1-1.3,0.1-1.9,0.1c-9.7,0-17.5-7.8-17.5-17.5c0-9.1,6.9-16.5,15.8-17.4l107.9-176.2c-1-2.2-1.6-4.7-1.6-7.4
					c0-9.7,7.8-17.5,17.5-17.5c7.2,0,13.3,4.3,16,10.5l140.6,71.9c2.9-2.1,6.5-3.4,10.3-3.4c4.7,0,9,1.9,12.2,5l137.8-70.5
					c1.8-7.7,8.7-13.5,17-13.5c9.7,0,17.5,7.8,17.5,17.5c0,3.6-1.1,7-3,9.8L788.4,458h0.1c9.7,0,17.5,7.8,17.5,17.5
					C806,484.8,798.7,492.4,789.5,493L789.5,493z"/>
			</defs>
			<defs>
				<path id="SVGID_104_" d="M464.3,726.1L316.1,462.7c-3.4-0.7-6.4-2.4-8.8-4.7l-79,22.6c-0.3,1.1-0.8,2.2-1.3,3.3L464.3,726.1
					L464.3,726.1z"/>
			</defs>
			<defs>
				<path id="SVGID_105_" d="M224.8,464.1c0.2,0.2,0.3,0.4,0.5,0.6l76.9-22c1-6.2,5.3-11.4,11-13.6l11.9-129L224.8,464.1
					L224.8,464.1z"/>
			</defs>
			<defs>
				<path id="SVGID_106_" d="M342.1,290.4l-13,140.5c2.6,1.8,4.8,4.2,6.1,7.1h146.3L342.1,290.4L342.1,290.4z"/>
			</defs>
			<defs>
				<path id="SVGID_107_" d="M493,369.3c-5.8-2.8-9.9-8.7-10-15.6l-114.2-58.4L493,426.8V369.3L493,369.3z"/>
			</defs>
			<defs>
				<path id="SVGID_108_" d="M493,461.3c-3.3-1.6-6-4.1-7.8-7.3H334.8c-0.8,1.5-1.8,2.8-3,4L493,744.5V461.3L493,461.3z"/>
			</defs>
			<defs>
				<path id="SVGID_109_" d="M774.2,485.6c-0.4-0.5-0.7-1.1-1-1.7l-82.5-23.6c-1.5,0.9-3.2,1.7-4.9,2.1L535.8,729L774.2,485.6
					L774.2,485.6z"/>
			</defs>
			<defs>
				<path id="SVGID_110_" d="M509,743.9l160.7-285.5c-1.4-1.3-2.5-2.7-3.5-4.4H515.8c-1.6,2.8-3.9,5.2-6.8,6.8V743.9L509,743.9z"/>
			</defs>
			<defs>
				<path id="SVGID_111_" d="M517.7,356.3c-0.9,5.4-4.2,9.9-8.7,12.5v58.9l122.2-129.3L517.7,356.3L517.7,356.3z"/>
			</defs>
			<defs>
				<path id="SVGID_112_" d="M657.9,293.4L521.2,438h144.5c1.2-2.4,2.9-4.5,4.9-6.2L657.9,293.4L657.9,293.4z"/>
			</defs>
			<clipPath id="SVGID_113_">
				<use xlink:href="#SVGID_103_"  style="overflow:visible;"/>
			</clipPath>
			<clipPath id="SVGID_114_" class="st38">
				<use xlink:href="#SVGID_104_"  style="overflow:visible;"/>
			</clipPath>
			<clipPath id="SVGID_115_" class="st39">
				<use xlink:href="#SVGID_105_"  style="overflow:visible;"/>
			</clipPath>
			<clipPath id="SVGID_116_" class="st40">
				<use xlink:href="#SVGID_106_"  style="overflow:visible;"/>
			</clipPath>
			<clipPath id="SVGID_117_" class="st41">
				<use xlink:href="#SVGID_107_"  style="overflow:visible;"/>
			</clipPath>
			<clipPath id="SVGID_118_" class="st42">
				<use xlink:href="#SVGID_108_"  style="overflow:visible;"/>
			</clipPath>
			<clipPath id="SVGID_119_" class="st43">
				<use xlink:href="#SVGID_109_"  style="overflow:visible;"/>
			</clipPath>
			<clipPath id="SVGID_120_" class="st44">
				<use xlink:href="#SVGID_110_"  style="overflow:visible;"/>
			</clipPath>
			<clipPath id="SVGID_121_" class="st45">
				<use xlink:href="#SVGID_111_"  style="overflow:visible;"/>
			</clipPath>
			<clipPath id="SVGID_122_" class="st46">
				<use xlink:href="#SVGID_112_"  style="overflow:visible;"/>
			</clipPath>
		</g>
	</g>
</g>
</svg>
