<?xml version="1.0" encoding="utf-8"?>
<!-- Generator: Adobe Illustrator 21.0.0, SVG Export Plug-In . SVG Version: 6.00 Build 0)  -->
<svg version="1.1" id="Layer_1" xmlns="http://www.w3.org/2000/svg" xmlns:xlink="http://www.w3.org/1999/xlink" x="0px" y="0px"
	 viewBox="0 0 50.1 50.1" style="enable-background:new 0 0 50.1 50.1;" xml:space="preserve">
<style type="text/css">
	.st0{fill:#182244;}
	.st1{fill:url(#SVGID_2_);}
	.st2{fill:url(#SVGID_3_);}
</style>
<g>
	<g>
		<g>
			<path id="SVGID_1_" class="st0" d="M25.1,0c13.8,0,25,11.2,25,25s-11.2,25-25,25s-25-11.2-25-25S11.3,0,25.1,0L25.1,0z"/>
		</g>
	</g>
</g>
<g>
	
		<linearGradient id="SVGID_2_" gradientUnits="userSpaceOnUse" x1="19.9668" y1="1991.8829" x2="46.1854" y2="1965.6642" gradientTransform="matrix(1 0 0 1 -1.9997 -1947.9999)">
		<stop  offset="0" style="stop-color:#58BBEA"/>
		<stop  offset="0.1917" style="stop-color:#5DB3E4"/>
		<stop  offset="0.4905" style="stop-color:#699DD4"/>
		<stop  offset="0.8574" style="stop-color:#7D79BA"/>
		<stop  offset="1" style="stop-color:#8669AE"/>
	</linearGradient>
	<path class="st1" d="M37.9,13.1c-0.1-0.2-0.3-0.3-0.4-0.5c-0.1-0.1-0.3-0.3-0.5-0.4l-0.4,0.4l-0.5,0.5l-1.4,1.4l0,0l-0.8,0.8
		l-1.5,1.5l0,0l-0.9,0.9c0.2,0.1,0.3,0.3,0.5,0.4c0.1,0.1,0.3,0.3,0.4,0.5c1.5,1.7,2.3,3.9,2.3,6.1c0,2.5-1,4.8-2.7,6.6
		c-1.8,1.8-4.1,2.7-6.6,2.7c-2.3,0-4.5-0.6-6.3-2.1L19,32l-0.7,0.7c1.9,1.7,4.5,2.6,7.1,2.6c2.8,0,5.5-1.1,7.5-3.1s3.1-4.7,3.1-7.5
		c0-2.6-1-5.1-2.7-7l1.5-1.5c2.1,2.3,3.3,5.3,3.3,8.5c0,3.4-1.3,6.5-3.7,8.9c-2.4,2.4-5.6,3.7-8.9,3.7c-3.2,0-6.2-1.2-8.5-3.3l-1,1
		c2.6,2.3,5.9,3.6,9.4,3.6c3.7,0,7.2-1.4,9.8-4.1c2.6-2.6,4.1-6.1,4.1-9.8c0-3.5-1.3-6.8-3.6-9.4l1.4-1.4l0,0
		c5.8,6.2,5.6,16-0.4,22.1c-3,3-7,4.7-11.3,4.7c-4,0-7.9-1.6-10.8-4.3L14,36.9l-0.3,0.4c3.2,3,7.3,4.7,11.7,4.7
		c4.6,0,8.9-1.8,12.1-5C44.1,30.3,44.2,19.8,37.9,13.1z"/>
	<g>
		
			<linearGradient id="SVGID_3_" gradientUnits="userSpaceOnUse" x1="8.0959" y1="1980.3154" x2="33.73" y2="1954.6813" gradientTransform="matrix(1 0 0 1 -1.9997 -1947.9999)">
			<stop  offset="0" style="stop-color:#ABCB37"/>
			<stop  offset="0.2693" style="stop-color:#A9CB38"/>
			<stop  offset="0.424" style="stop-color:#A0C93B"/>
			<stop  offset="0.5496" style="stop-color:#92C741"/>
			<stop  offset="0.6598" style="stop-color:#7EC449"/>
			<stop  offset="0.7598" style="stop-color:#65C054"/>
			<stop  offset="0.8524" style="stop-color:#45BB61"/>
			<stop  offset="0.9376" style="stop-color:#20B570"/>
			<stop  offset="1" style="stop-color:#00B07D"/>
		</linearGradient>
		<path class="st2" d="M34.6,14.6L34.6,14.6c-2.5-2.4-5.8-3.7-9.3-3.7c-3.7,0-7.2,1.4-9.8,4.1c-2.6,2.6-4.1,6.1-4.1,9.8
			c0,3.5,1.3,6.8,3.6,9.4l-1.4,1.4C7.8,29.4,8,19.6,14,13.5c3-3,7-4.7,11.3-4.7c4,0,8,1.5,10.9,4.2L34.6,14.6l1.5-1.5l0.5-0.5
			l0.4-0.4c-3.2-3-7.3-4.6-11.7-4.6c-4.6,0-8.9,1.8-12.1,5c-6.5,6.5-6.7,17.1-0.4,23.8c0.1,0.2,0.3,0.3,0.4,0.5
			c0.1,0.1,0.3,0.3,0.5,0.4l0.4-0.4l0.5-0.5l1.3-1.3l0.9-0.9l1.5-1.5l0.6-0.6l0.2-0.2c-0.2-0.1-0.3-0.3-0.5-0.4
			c-0.1-0.1-0.3-0.3-0.4-0.5c-1.5-1.7-2.3-3.9-2.3-6.1c0-2.5,1-4.8,2.7-6.6c1.8-1.8,4.1-2.7,6.6-2.7c2.3,0,4.5,0.6,6.3,2.1l0.8-0.9
			c-1.9-1.7-4.5-2.5-7.1-2.5c-2.8,0-5.5,1.1-7.5,3.1s-3.1,4.7-3.1,7.5c0,2.6,1,5.1,2.7,7l-1.5,1.4c-2.1-2.3-3.3-5.3-3.3-8.5
			c0-3.4,1.3-6.5,3.7-8.9s5.6-3.7,8.9-3.7c3.2,0,6.2,1.2,8.5,3.3L32.2,17l0,0l1.5-1.5L34.6,14.6z"/>
	</g>
</g>
</svg>
