<?xml version="1.0" encoding="utf-8"?>
<!-- Generator: Adobe Illustrator 21.0.0, SVG Export Plug-In . SVG Version: 6.00 Build 0)  -->
<svg version="1.1" id="Layer_1" xmlns="http://www.w3.org/2000/svg" xmlns:xlink="http://www.w3.org/1999/xlink" x="0px" y="0px"
	 viewBox="0 0 50.1 50.1" style="enable-background:new 0 0 50.1 50.1;" xml:space="preserve">
<style type="text/css">
	.st0{fill:#281847;}
	.st1{fill:url(#path9698_1_);}
	.st2{fill:#1F231C;fill-opacity:5.498280e-02;}
	.st3{fill:#15191C;fill-opacity:5.498280e-02;}
	.st4{fill:url(#path9732_1_);}
</style>
<g>
	<g>
		<g>
			<path id="SVGID_1_" class="st0" d="M25.1,0c13.8,0,25,11.2,25,25s-11.2,25-25,25s-25-11.2-25-25S11.3,0,25.1,0L25.1,0z"/>
		</g>
	</g>
</g>
<g id="layer1">
	<g id="g9742" transform="matrix(4.1251 0 0 4.1251 -882.488 -1920.454)">
		
			<linearGradient id="path9698_1_" gradientUnits="userSpaceOnUse" x1="-27.3191" y1="576.6323" x2="-25.7603" y2="578.1537" gradientTransform="matrix(1133.7566 0 0 1133.7566 31190.2793 -653293)">
			<stop  offset="0" style="stop-color:#A875CF"/>
			<stop  offset="1" style="stop-color:#18BBFE"/>
		</linearGradient>
		<path id="path9698" class="st1" d="M219.5,475.1l-0.3-0.5l-2.8-5.6c0,0-0.1-0.2,0.1-0.2c0.4,0,0.8,0,1.2,0c0,0,0.1,0,0.1,0.1
			s2.2,4.5,2.2,4.5s0.5,0.6,0.9,0c0.3-0.6,1.5-2.9,2.3-4.5c0,0,0.1-0.1,0.3,0s0.1,0.2,0.1,0.2l-3.1,6.2
			C220.3,475.6,219.9,475.7,219.5,475.1L219.5,475.1z"/>
		<path id="path9728" class="st2" d="M216.6,469l2,2.4l0.9,3.3L216.6,469z"/>
		<path id="path9730" class="st3" d="M217.9,469l0.6,2.4l1.4,1.6L217.9,469L217.9,469z"/>
		
			<linearGradient id="path9732_1_" gradientUnits="userSpaceOnUse" x1="-27.3176" y1="576.6368" x2="-26.8843" y2="577.0295" gradientTransform="matrix(1133.7566 0 0 1133.7566 31190.2793 -653293)">
			<stop  offset="0" style="stop-color:#000000;stop-opacity:0.1"/>
			<stop  offset="1" style="stop-color:#FFFFFF;stop-opacity:0"/>
		</linearGradient>
		<path id="path9732" class="st4" d="M219.4,474.7l-0.8-3.3l1.3,1.8l0.3,0.6L219.4,474.7z"/>
	</g>
</g>
</svg>
